<svg id="svg" xmlns="http://www.w3.org/2000/svg" viewBox="0 0 157.08 160.89"><defs><style>.cls-1{fill:#9c1700;}.cls-2{fill:#0009a6;}.cls-3{fill:#951600;}</style></defs><title>bruxell-logo</title><g id="offset-fix-group"><g id="text-wrapper-1"><g id="text-1"><path id="char-fkfokyvs-B-98" class="cls-1" d="M56.15,127.31c.73-.14,1.53-.28,2.39-.42s1.76-.26,2.68-.36,1.84-.18,2.78-.23,1.83-.08,2.7-.08a21.91,21.91,0,0,1,6.44.8,11.44,11.44,0,0,1,4,2.08,6.78,6.78,0,0,1,2,2.86,9.06,9.06,0,0,1,.58,3.14,9.72,9.72,0,0,1-.42,2.81,8.35,8.35,0,0,1-1.3,2.6,7.85,7.85,0,0,1-2.29,2.05,9.13,9.13,0,0,1-3.32,1.17,12.09,12.09,0,0,1,4.13,1,9.2,9.2,0,0,1,2.88,2.08,7.74,7.74,0,0,1,1.67,2.8,10.51,10.51,0,0,1-.29,7.31,8.55,8.55,0,0,1-2.73,3.45A14.79,14.79,0,0,1,73,162.83a29.63,29.63,0,0,1-7.92.91l-2.1,0c-.78,0-1.58-.05-2.4-.1s-1.61-.12-2.41-.18-1.53-.16-2.18-.26l.18-4.37.13-4c.08-2.65.11-4.25.08-4.79s0-2.81,0-6.83c0-2.49,0-5.07,0-7.72S56.26,130.12,56.15,127.31Zm7,19.18v6.72l0,5.64a15.39,15.39,0,0,0,2,.5,11.75,11.75,0,0,0,2,.18,7.5,7.5,0,0,0,5.33-1.92,7.06,7.06,0,0,0,2.05-5.41,7.65,7.65,0,0,0-.39-2.49,4.85,4.85,0,0,0-1.25-2,5.87,5.87,0,0,0-2.2-1.3,10.33,10.33,0,0,0-3.33-.46A19.24,19.24,0,0,0,63.17,146.49Zm.1-15c-.07,1.42-.1,3-.1,4.7v6c.52.07,1,.12,1.48.16s.92,0,1.38,0q3.84,0,5.56-1.61a5.63,5.63,0,0,0,1.71-4.31,7.79,7.79,0,0,0-.29-2.11,4.54,4.54,0,0,0-2.75-3,7.4,7.4,0,0,0-2.83-.47,10.79,10.79,0,0,0-2.05.19C64.7,131.15,64,131.29,63.27,131.47Z" transform="translate(-50.58 -26.8)"/><path id="char-fkfokyvs-r-99" class="cls-1" d="M90.45,136.25a29.34,29.34,0,0,1,1.71,3,10.36,10.36,0,0,1,.89,2.67,17.21,17.21,0,0,1,1.3-1.69,14.3,14.3,0,0,1,1.76-1.71,12.91,12.91,0,0,1,2.19-1.43,8,8,0,0,1,2.54-.83l.47,7.38a23.47,23.47,0,0,0-4.73.44,5.63,5.63,0,0,0-3.12,1.48c0,.66.05,1.38.05,2.16v2.62c0,1.11,0,2.3.06,3.56s.07,2.48.13,3.64.11,2.24.18,3.25.14,1.8.21,2.39H86.76c0-.73.07-1.58.1-2.55s.07-2,.11-3,.06-2.11.07-3.2,0-2.14,0-3.14c0-1.6,0-2.91-.1-3.93a13.26,13.26,0,0,0-.42-2.65,9.36,9.36,0,0,0-.83-2.05c-.35-.62-.8-1.35-1.35-2.18Z" transform="translate(-50.58 -26.8)"/><path id="char-fkfokyvs-u-100" class="cls-1" d="M122.82,163.79c-.69-1-1.25-1.87-1.66-2.6a9.29,9.29,0,0,1-.94-2.29c-.52.59-1.07,1.17-1.66,1.75a12.89,12.89,0,0,1-2,1.55,11.18,11.18,0,0,1-2.26,1.15,7.51,7.51,0,0,1-2.6.44,7.08,7.08,0,0,1-2.52-.47,5.29,5.29,0,0,1-2.15-1.56,8,8,0,0,1-1.51-3,16.34,16.34,0,0,1-.57-4.68c0-.45,0-1.15,0-2.1s0-2,.08-3,.06-2.07.08-3,0-1.72,0-2.24a22.09,22.09,0,0,0-.24-3.3,7.64,7.64,0,0,0-.8-2.62l7.12-1.25a11,11,0,0,1,.44,2.6c0,.93.08,1.75.08,2.44,0,1,0,2-.08,3s-.11,2-.16,2.94-.1,1.85-.15,2.7-.08,1.59-.08,2.21c0,2,.34,3.45,1,4.21a3.66,3.66,0,0,0,2.86,1.14,5.9,5.9,0,0,0,2.59-.52,9.46,9.46,0,0,0,2-1.24c0-.63,0-1.33,0-2.11v-7l0-3.58c0-2.39,0-3.44,0-3.15s-.05-.72-.08-3h7c0,.83-.07,1.77-.11,2.81s-.08,2.14-.13,3.3-.09,2.36-.13,3.58,0,2.42,0,3.56c0,1.36,0,2.46.1,3.3a9.82,9.82,0,0,0,.42,2.24,7.56,7.56,0,0,0,.83,1.77c.35.53.8,1.15,1.35,1.84Z" transform="translate(-50.58 -26.8)"/><path id="char-fkfokyvs-x-101" class="cls-1" d="M155.2,137.18c-.63.8-1.21,1.56-1.74,2.29s-1.13,1.55-1.77,2.47-1.39,2-2.24,3.3-1.91,2.86-3.19,4.73c1,1.42,1.85,2.72,2.65,3.92s1.55,2.32,2.26,3.38,1.39,2.06,2.05,3,1.33,1.92,2,2.89h-7.43l-1.35-2.34q-.63-1.1-1.2-2.16t-1.17-2.1l-1.27-2.24c-1,1.63-1.92,3.15-2.76,4.57s-1.64,2.85-2.44,4.27H130.2l2.18-3.12c.66-.94,1.33-1.89,2-2.86s1.41-2,2.19-3.17l2.83-4.16q-2.19-3.17-4.29-6.26t-4.55-6.42h7.54c.31.66.62,1.29.93,1.87s.65,1.21,1,1.85.77,1.33,1.22,2.08l1.56,2.57q1.29-2.13,2.39-4.08t2.44-4.29Z" transform="translate(-50.58 -26.8)"/><path id="char-fkfokyvs-e-102" class="cls-1" d="M164.24,151.42q.25,3.95,1.61,5.54a5.11,5.11,0,0,0,4.1,1.58,12.35,12.35,0,0,0,3.93-.62c1.23-.42,2.24-.8,3-1.15v4.32a9.37,9.37,0,0,1-4.16,2.1,20.59,20.59,0,0,1-4.83.6,15.75,15.75,0,0,1-3.8-.47,7.87,7.87,0,0,1-3.35-1.79,9.3,9.3,0,0,1-2.39-3.69,17.79,17.79,0,0,1-.91-6.21,21,21,0,0,1,.94-6.63,13.49,13.49,0,0,1,2.57-4.7,10.36,10.36,0,0,1,3.85-2.8,12.05,12.05,0,0,1,4.8-.94,9.07,9.07,0,0,1,4.34.91,7.41,7.41,0,0,1,2.65,2.31,8.45,8.45,0,0,1,1.3,3.12,16.81,16.81,0,0,1,.34,3.33,17.32,17.32,0,0,1-.24,3,9.47,9.47,0,0,1-.59,2.18Zm4.47-11.07a3.55,3.55,0,0,0-3.15,1.74,11.75,11.75,0,0,0-1.32,5.49h8.57c0-.14,0-.32,0-.52s0-.4,0-.57a13.74,13.74,0,0,0-.15-1.9,6.49,6.49,0,0,0-.63-2,4.68,4.68,0,0,0-1.27-1.59A3.27,3.27,0,0,0,168.71,140.35Z" transform="translate(-50.58 -26.8)"/><path id="char-fkfokyvs-l-103" class="cls-1" d="M190.12,123.15c-.11,1.22-.19,2.46-.24,3.74s-.08,2.7-.1,4.24,0,3.26-.05,5.17,0,4.09,0,6.55v6.21l0,5.17c0,3.44,0,5,.05,4.54s0,1,.08,4.4h-7c0-1.81.08-3.4.13-4.79s.1-2.83.13-4.33.07-3.23.1-5.15.06-4.34.06-7.25,0-5.9-.06-8.86-.1-6-.2-9.12Z" transform="translate(-50.58 -26.8)"/><path id="char-fkfokyvs-l-104" class="cls-1" d="M203.21,123.15c-.1,1.22-.18,2.46-.23,3.74s-.09,2.7-.11,4.24,0,3.26-.05,5.17,0,4.09,0,6.55v6.21l0,5.17c0,3.44,0,5,.05,4.54s0,1,.08,4.4h-7c0-1.81.07-3.4.13-4.79s.09-2.83.13-4.33.06-3.23.1-5.15,0-4.34,0-7.25,0-5.9,0-8.86-.1-6-.21-9.12Z" transform="translate(-50.58 -26.8)"/></g></g><g id="symbol-wrapper-1"><g id="symbol-bg-wrapper-1"><g id="symbol-1"><g id="gsymbol-1"><g id="surface1"><path class="cls-2" d="M104.15,73.9l-4.47,5.41L80.33,135.06h4.55ZM113,63.61l-6.12,7.12L87.91,135.06h7.58ZM125.34,49l-8.63,10.15-15.65,75.91h15.75ZM144,26.8,130.81,42.5l-.9,92.56h49.61Z" transform="translate(-50.58 -26.8)"/></g></g></g></g></g><g id="text-wrapper-2"><g id="text-2"><path id="char-fkfokyvs-C-105" class="cls-3" d="M50.58,176.18q0-4.29,1.75-6.38a6.05,6.05,0,0,1,4.92-2.09,9,9,0,0,1,1.62.13,5.6,5.6,0,0,0,1.18.13,4.49,4.49,0,0,0,.73-.06c.25,0,.51-.1.78-.18l.24,5.5-2.43.29c0-.22,0-.43,0-.62s0-.38,0-.55a3.79,3.79,0,0,0-.48-2.08,1.89,1.89,0,0,0-1.71-.74q-3.81,0-3.81,6.09a10.24,10.24,0,0,0,.25,2.46,4.18,4.18,0,0,0,.75,1.66,2.78,2.78,0,0,0,1.24.93,4.6,4.6,0,0,0,1.72.29,7.17,7.17,0,0,0,2.1-.31c.69-.21,1.37-.44,2-.68v2.29a6.42,6.42,0,0,1-2.28.88,12.94,12.94,0,0,1-2.51.25,9.91,9.91,0,0,1-2.33-.27,4.43,4.43,0,0,1-2-1.06,5.45,5.45,0,0,1-1.34-2.2A11.34,11.34,0,0,1,50.58,176.18Z" transform="translate(-50.58 -26.8)"/><path id="char-fkfokyvs-l-106" class="cls-3" d="M67,166.46c0,.5-.08,1-.1,1.56s0,1.12-.05,1.76,0,1.36,0,2.15,0,1.71,0,2.73v4.74c0,1.44,0,2.07,0,1.9s0,.44,0,1.83H64c0-.75,0-1.42.06-2s0-1.18,0-1.81,0-1.34.05-2.14,0-1.81,0-3,0-2.45,0-3.69-.05-2.5-.09-3.8Z" transform="translate(-50.58 -26.8)"/><path id="char-fkfokyvs-e-107" class="cls-3" d="M71.76,178.24a4,4,0,0,0,.67,2.3,2.14,2.14,0,0,0,1.71.66,5.22,5.22,0,0,0,1.64-.26c.51-.17.93-.33,1.26-.47v1.79a3.9,3.9,0,0,1-1.73.88,8.38,8.38,0,0,1-2,.25,6.39,6.39,0,0,1-1.58-.2,3.33,3.33,0,0,1-1.4-.74,4,4,0,0,1-1-1.54,7.42,7.42,0,0,1-.38-2.59,8.84,8.84,0,0,1,.39-2.76,5.51,5.51,0,0,1,1.08-2,4.28,4.28,0,0,1,1.6-1.17,5.06,5.06,0,0,1,2-.39,3.83,3.83,0,0,1,1.81.38,3,3,0,0,1,1.1,1,3.35,3.35,0,0,1,.54,1.29,6.76,6.76,0,0,1,.14,1.39,8.11,8.11,0,0,1-.09,1.26,4.66,4.66,0,0,1-.25.91Zm1.86-4.62a1.49,1.49,0,0,0-1.31.73,4.85,4.85,0,0,0-.55,2.28h3.57a1.7,1.7,0,0,1,0-.21,2.09,2.09,0,0,0,0-.24,5.91,5.91,0,0,0-.06-.79,2.94,2.94,0,0,0-.26-.84,2,2,0,0,0-.53-.66A1.38,1.38,0,0,0,73.62,173.62Z" transform="translate(-50.58 -26.8)"/><path id="char-fkfokyvs-a-108" class="cls-3" d="M81.85,183.39a2.82,2.82,0,0,1-2.2-.93,3.48,3.48,0,0,1-.83-2.43,3.39,3.39,0,0,1,.91-2.49,3.22,3.22,0,0,1,2.42-.93,5,5,0,0,1,1.26.17,4.24,4.24,0,0,1,1.12.5v-1.21a2.07,2.07,0,0,0-.39-1.43,1.8,1.8,0,0,0-1.34-.41,6.14,6.14,0,0,0-1.37.16,4.43,4.43,0,0,0-1.16.4l-.67-2.08c.21-.08.47-.17.78-.26s.62-.15,1-.21.7-.11,1.06-.14a9.05,9.05,0,0,1,1-.06q3.81,0,3.81,3.73c0,.21,0,.53,0,.95s0,.85-.07,1.31,0,.88-.06,1.27,0,.66,0,.82a1.27,1.27,0,0,0,.15.71.65.65,0,0,0,.57.22,2.8,2.8,0,0,0,.65-.09L88,183l-.64.18a2.88,2.88,0,0,1-.59.06,2.11,2.11,0,0,1-1.35-.44,1.93,1.93,0,0,1-.65-1.27,3.24,3.24,0,0,1-1.21,1.33A3.19,3.19,0,0,1,81.85,183.39Zm1-2a1.61,1.61,0,0,0,1.18-.5,1.74,1.74,0,0,0,.48-1.26,1.45,1.45,0,0,0-.38-1,1.48,1.48,0,0,0-1.09-.39,1.47,1.47,0,0,0-1.12.44,1.63,1.63,0,0,0-.41,1.19A1.68,1.68,0,0,0,81.9,181,1.21,1.21,0,0,0,82.89,181.4Z" transform="translate(-50.58 -26.8)"/><path id="char-fkfokyvs-n-109" class="cls-3" d="M91.7,172a11.52,11.52,0,0,1,.69,1.11,3.65,3.65,0,0,1,.39,1c.22-.23.46-.47.74-.72a5.74,5.74,0,0,1,.88-.68,5.43,5.43,0,0,1,1-.48,3.32,3.32,0,0,1,1.13-.2,2.92,2.92,0,0,1,1,.2,2.17,2.17,0,0,1,.9.65,3.22,3.22,0,0,1,.62,1.23,6.73,6.73,0,0,1,.24,1.95c0,.2,0,.5,0,.89s0,.8,0,1.24,0,.87,0,1.27,0,.71,0,.93a10.21,10.21,0,0,0,.09,1.38,3.33,3.33,0,0,0,.34,1.09l-3,.52a4.51,4.51,0,0,1-.18-1.08c0-.39,0-.73,0-1s0-.82,0-1.25,0-.83.06-1.23,0-.77.07-1.13,0-.66,0-.92a2.7,2.7,0,0,0-.43-1.75,1.54,1.54,0,0,0-1.2-.48,3.31,3.31,0,0,0-1.15.2,4.67,4.67,0,0,0-.95.47,8.46,8.46,0,0,1,0,.91v4.44c0,1,0,1.43,0,1.31a12.26,12.26,0,0,1,0,1.27H90.12c0-.35,0-.74,0-1.17s0-.89.06-1.38,0-1,0-1.49,0-1,0-1.48,0-1,0-1.38a4.68,4.68,0,0,0-.17-.93,3.29,3.29,0,0,0-.35-.73,8,8,0,0,0-.56-.77Z" transform="translate(-50.58 -26.8)"/><path id="char-fkfokyvs-i-110" class="cls-3" d="M104.84,172.3q-.06.49-.09,1c0,.3,0,.63,0,1s0,.8,0,1.28,0,1.06,0,1.72v3.29c0,1,0,1.43,0,1.31a12.26,12.26,0,0,1,0,1.27h-2.92c0-.54,0-1,.06-1.41s0-.83,0-1.29,0-1,0-1.53,0-1.29,0-2.14,0-1.51,0-2.19,0-1.44-.08-2.27Zm-3-3.53a1.49,1.49,0,0,1,.42-1.05,1.54,1.54,0,0,1,1.16-.44,1.72,1.72,0,0,1,1.1.37,1.18,1.18,0,0,1,.46,1,1.34,1.34,0,0,1-.44,1,1.65,1.65,0,0,1-1.18.41,1.73,1.73,0,0,1-1.07-.33A1.15,1.15,0,0,1,101.81,168.77Z" transform="translate(-50.58 -26.8)"/><path id="char-fkfokyvs-n-111" class="cls-3" d="M109,172c.29.42.52.79.7,1.11a4.48,4.48,0,0,1,.39,1c.21-.23.46-.47.73-.72a6.28,6.28,0,0,1,.88-.68,5.23,5.23,0,0,1,1-.48,3.26,3.26,0,0,1,1.12-.2,2.92,2.92,0,0,1,1,.2,2.17,2.17,0,0,1,.9.65,3.38,3.38,0,0,1,.63,1.23,6.73,6.73,0,0,1,.24,1.95c0,.2,0,.5,0,.89s0,.8,0,1.24,0,.87,0,1.27,0,.71,0,.93a8.79,8.79,0,0,0,.1,1.38,3.12,3.12,0,0,0,.33,1.09l-3,.52a4.51,4.51,0,0,1-.18-1.08q0-.59,0-1c0-.41,0-.82,0-1.25s0-.83.06-1.23,0-.77.07-1.13,0-.66,0-.92a2.64,2.64,0,0,0-.43-1.75,1.53,1.53,0,0,0-1.19-.48,3.32,3.32,0,0,0-1.16.2,4.58,4.58,0,0,0-.94.47,8.59,8.59,0,0,1,0,.91v4.44c0,1,0,1.43,0,1.31s0,.3,0,1.27h-2.93c0-.35,0-.74.05-1.17s0-.89,0-1.38,0-1,0-1.49,0-1,0-1.48,0-1,0-1.38a4.06,4.06,0,0,0-.17-.93,2.9,2.9,0,0,0-.35-.73,8,8,0,0,0-.56-.77Z" transform="translate(-50.58 -26.8)"/><path id="char-fkfokyvs-g-112" class="cls-3" d="M128.44,183a3.29,3.29,0,0,1-.56,1.87,4.93,4.93,0,0,1-1.53,1.48,8,8,0,0,1-2.2,1,9.73,9.73,0,0,1-2.61.35,8.61,8.61,0,0,1-1.49-.13,4.12,4.12,0,0,1-1.17-.41,2.19,2.19,0,0,1-.76-.72,1.82,1.82,0,0,1-.29-1,2,2,0,0,1,.51-1.38,6.38,6.38,0,0,1,1.46-1.13,1.89,1.89,0,0,1-.81-.52,1.36,1.36,0,0,1-.31-.95,2.08,2.08,0,0,1,.15-.78,2.41,2.41,0,0,1,.41-.67,3.94,3.94,0,0,1,.59-.56,5.14,5.14,0,0,1,.67-.48,3.41,3.41,0,0,1-1.18-1.21,3.37,3.37,0,0,1-.43-1.69,3.69,3.69,0,0,1,.35-1.58,3.75,3.75,0,0,1,1-1.27,4.9,4.9,0,0,1,1.49-.84,5.41,5.41,0,0,1,1.88-.32,4.75,4.75,0,0,1,.78.06,4.41,4.41,0,0,1,.72.16,3.94,3.94,0,0,1,.43-.62,5.53,5.53,0,0,1,.72-.74,5.74,5.74,0,0,1,1-.67,3,3,0,0,1,1.12-.35l.11,2.49a6.75,6.75,0,0,0-1.19.1,5.3,5.3,0,0,0-1.06.27,3.3,3.3,0,0,1,1.14,1.21,3.46,3.46,0,0,1,.4,1.64,3.62,3.62,0,0,1-.36,1.61,3.87,3.87,0,0,1-1,1.26,4.55,4.55,0,0,1-1.48.83,5.79,5.79,0,0,1-1.85.29,5.51,5.51,0,0,1-1.64-.24,1.26,1.26,0,0,0-.26.78.71.71,0,0,0,.47.75,3.94,3.94,0,0,0,1.17.16l.84,0,.87-.06.83,0c.25,0,.47,0,.64,0a2.74,2.74,0,0,1,1.83.54A2,2,0,0,1,128.44,183Zm-5.09-9.26a1.92,1.92,0,0,0-1.52.6,2.2,2.2,0,0,0-.53,1.52,2,2,0,0,0,.54,1.47,1.93,1.93,0,0,0,1.41.52,2.06,2.06,0,0,0,.93-.2,1.95,1.95,0,0,0,1-1.2,2.53,2.53,0,0,0,.12-.77,2,2,0,0,0-.5-1.38A1.86,1.86,0,0,0,123.35,173.78ZM126,184.17a.71.71,0,0,0-.5-.7,4.51,4.51,0,0,0-1.27-.23c-.51,0-1.07,0-1.67,0a13.33,13.33,0,0,1-1.71-.07,1.85,1.85,0,0,0-.7,1.28c0,.33.22.61.65.84a4.26,4.26,0,0,0,1.93.35,8.44,8.44,0,0,0,1.25-.1,5,5,0,0,0,1-.29,2.13,2.13,0,0,0,.71-.46A.82.82,0,0,0,126,184.17Z" transform="translate(-50.58 -26.8)"/><path id="char-fkfokyvs-S-113" class="cls-3" d="M139.31,180.92a3.47,3.47,0,0,0,2-.48,1.59,1.59,0,0,0,.66-1.38,1.76,1.76,0,0,0-.24-.95,2.29,2.29,0,0,0-.64-.68,4.51,4.51,0,0,0-.93-.48c-.35-.14-.72-.27-1.09-.4-.7-.23-1.32-.47-1.88-.7a6.29,6.29,0,0,1-1.43-.81,3.23,3.23,0,0,1-.92-1.15,4,4,0,0,1-.32-1.7,4.12,4.12,0,0,1,.57-2.28,4.07,4.07,0,0,1,1.44-1.36,5.36,5.36,0,0,1,1.9-.65,12.07,12.07,0,0,1,1.91-.17,12.27,12.27,0,0,1,2.14.18c.67.11,1.26.23,1.76.34v2.52a18.52,18.52,0,0,0-2.14-.5,11.77,11.77,0,0,0-2-.2,3.79,3.79,0,0,0-2.27.55,1.64,1.64,0,0,0-.71,1.34,1.44,1.44,0,0,0,.33,1,3.2,3.2,0,0,0,.82.67,4.81,4.81,0,0,0,1,.45l1,.29a13.66,13.66,0,0,1,1.56.53,5.75,5.75,0,0,1,1.42.83,4.08,4.08,0,0,1,1,1.29,4.13,4.13,0,0,1,.39,1.89,4.55,4.55,0,0,1-.41,2,3.74,3.74,0,0,1-1.12,1.4,5,5,0,0,1-1.72.85,8.41,8.41,0,0,1-2.19.28,14.95,14.95,0,0,1-4.85-.89l-.09-2.66a7.79,7.79,0,0,0,1,.38c.39.12.81.23,1.26.34a13.08,13.08,0,0,0,1.39.26A9,9,0,0,0,139.31,180.92Z" transform="translate(-50.58 -26.8)"/><path id="char-fkfokyvs-e-114" class="cls-3" d="M149.12,178.24a4,4,0,0,0,.67,2.3,2.14,2.14,0,0,0,1.71.66,5.22,5.22,0,0,0,1.64-.26c.51-.17.93-.33,1.26-.47v1.79a3.9,3.9,0,0,1-1.73.88,8.38,8.38,0,0,1-2,.25,6.45,6.45,0,0,1-1.58-.2,3.33,3.33,0,0,1-1.4-.74,4,4,0,0,1-1-1.54,7.44,7.44,0,0,1-.37-2.59,8.84,8.84,0,0,1,.39-2.76,5.5,5.5,0,0,1,1.07-2,4.36,4.36,0,0,1,1.6-1.17,5.06,5.06,0,0,1,2-.39,3.83,3.83,0,0,1,1.81.38,3,3,0,0,1,1.1,1,3.53,3.53,0,0,1,.55,1.29,7.53,7.53,0,0,1,.14,1.39,8,8,0,0,1-.1,1.26,4.66,4.66,0,0,1-.25.91Zm1.86-4.62a1.49,1.49,0,0,0-1.31.73,4.85,4.85,0,0,0-.55,2.28h3.57s0-.13,0-.21a2.09,2.09,0,0,0,0-.24,5.91,5.91,0,0,0-.06-.79,2.65,2.65,0,0,0-.26-.84,2,2,0,0,0-.53-.66A1.36,1.36,0,0,0,151,173.62Z" transform="translate(-50.58 -26.8)"/><path id="char-fkfokyvs-r-115" class="cls-3" d="M158.63,171.91a12.72,12.72,0,0,1,.71,1.25,4.26,4.26,0,0,1,.37,1.11,6.67,6.67,0,0,1,.54-.7,6.33,6.33,0,0,1,.74-.72,5.18,5.18,0,0,1,.9-.59,3.63,3.63,0,0,1,1.07-.35l.19,3.08a10.16,10.16,0,0,0-2,.18,2.3,2.3,0,0,0-1.3.62c0,.27,0,.57,0,.9v1.09c0,.46,0,1,0,1.48s0,1,.06,1.52.05.93.07,1.35.06.75.09,1h-3c0-.3,0-.66,0-1.06s0-.83,0-1.26,0-.88,0-1.33,0-.89,0-1.31c0-.66,0-1.21-.05-1.63a4.8,4.8,0,0,0-.17-1.11,4.31,4.31,0,0,0-.34-.85c-.15-.26-.34-.57-.57-.91Z" transform="translate(-50.58 -26.8)"/><path id="char-fkfokyvs-v-116" class="cls-3" d="M174.19,172c-.55,2.05-1.14,4-1.79,5.75s-1.38,3.56-2.17,5.34l-2.62.26q-1.12-2.67-2.05-5.34c-.61-1.78-1.18-3.7-1.69-5.75l2.79-.26c.3,1.49.64,3,1,4.4s.78,2.86,1.24,4.24c.51-1.37,1-2.74,1.37-4.1s.79-2.79,1.12-4.28Z" transform="translate(-50.58 -26.8)"/><path id="char-fkfokyvs-i-117" class="cls-3" d="M178.78,172.3q-.06.49-.09,1c0,.3,0,.63-.05,1s0,.8,0,1.28,0,1.06,0,1.72v3.29c0,1,0,1.43,0,1.31a12.26,12.26,0,0,1,0,1.27h-2.92c0-.54,0-1,.06-1.41s0-.83.05-1.29,0-1,0-1.53,0-1.29,0-2.14,0-1.51,0-2.19,0-1.44-.08-2.27Zm-3-3.53a1.49,1.49,0,0,1,.42-1.05,1.56,1.56,0,0,1,1.16-.44,1.7,1.7,0,0,1,1.1.37,1.18,1.18,0,0,1,.46,1,1.34,1.34,0,0,1-.44,1,1.65,1.65,0,0,1-1.18.41,1.73,1.73,0,0,1-1.07-.33A1.15,1.15,0,0,1,175.75,168.77Z" transform="translate(-50.58 -26.8)"/><path id="char-fkfokyvs-c-118" class="cls-3" d="M180.75,178.43a10,10,0,0,1,.36-2.83,5.57,5.57,0,0,1,1-2,4.21,4.21,0,0,1,1.52-1.18,4.71,4.71,0,0,1,1.92-.39,4.41,4.41,0,0,1,1.12.12,3.7,3.7,0,0,0,1,.12,2.32,2.32,0,0,0,.46,0c.14,0,.36-.09.64-.18l.24,4.2-2.12.29a3,3,0,0,0,0-.4c0-.13,0-.26,0-.4a2.66,2.66,0,0,0-.42-1.7,1.18,1.18,0,0,0-.9-.51,1.62,1.62,0,0,0-1.53,1.08,7.75,7.75,0,0,0-.5,3.18,4.42,4.42,0,0,0,.57,2.56,2,2,0,0,0,1.68.78,4.32,4.32,0,0,0,1.5-.27c.5-.18.94-.35,1.31-.51v1.9a3.87,3.87,0,0,1-1.65.88,7.64,7.64,0,0,1-2,.25,6.31,6.31,0,0,1-1.57-.2,3.2,3.2,0,0,1-1.36-.72,3.83,3.83,0,0,1-1-1.51A7.39,7.39,0,0,1,180.75,178.43Z" transform="translate(-50.58 -26.8)"/><path id="char-fkfokyvs-e-119" class="cls-3" d="M193.31,178.24a4,4,0,0,0,.67,2.3,2.14,2.14,0,0,0,1.71.66,5.17,5.17,0,0,0,1.64-.26c.51-.17.93-.33,1.26-.47v1.79a3.84,3.84,0,0,1-1.73.88,8.38,8.38,0,0,1-2,.25,6.45,6.45,0,0,1-1.58-.2,3.33,3.33,0,0,1-1.4-.74,3.87,3.87,0,0,1-1-1.54,7.19,7.19,0,0,1-.38-2.59,8.84,8.84,0,0,1,.39-2.76,5.5,5.5,0,0,1,1.07-2,4.36,4.36,0,0,1,1.6-1.17,5.06,5.06,0,0,1,2-.39,3.83,3.83,0,0,1,1.81.38,3.1,3.1,0,0,1,1.11,1,3.69,3.69,0,0,1,.54,1.29,7.53,7.53,0,0,1,.14,1.39,7,7,0,0,1-.1,1.26,4,4,0,0,1-.25.91Zm1.86-4.62a1.49,1.49,0,0,0-1.31.73,4.85,4.85,0,0,0-.55,2.28h3.57s0-.13,0-.21a2.32,2.32,0,0,0,0-.24,6.05,6.05,0,0,0-.07-.79,2.65,2.65,0,0,0-.26-.84,2,2,0,0,0-.53-.66A1.36,1.36,0,0,0,195.17,173.62Z" transform="translate(-50.58 -26.8)"/><path id="char-fkfokyvs-s-120" class="cls-3" d="M204.27,181.09a1.3,1.3,0,0,0,.86-.23.86.86,0,0,0,.26-.68,1.13,1.13,0,0,0-.09-.47,1,1,0,0,0-.31-.35,2.33,2.33,0,0,0-.53-.29l-.78-.32c-.34-.12-.69-.27-1.05-.43a4,4,0,0,1-.95-.6,2.73,2.73,0,0,1-.68-1,3.52,3.52,0,0,1-.26-1.47,3.12,3.12,0,0,1,.4-1.68,3,3,0,0,1,1-1,3.76,3.76,0,0,1,1.26-.47,7.08,7.08,0,0,1,1.23-.12,9.81,9.81,0,0,1,1.37.11,5.53,5.53,0,0,1,1.23.3v2.3a7.23,7.23,0,0,0-.78-.23c-.27-.06-.54-.12-.8-.16s-.5-.08-.73-.1l-.57,0c-.92,0-1.38.32-1.38,1a1.08,1.08,0,0,0,.6,1,11.64,11.64,0,0,0,1.5.66,8.53,8.53,0,0,1,1,.44,3.3,3.3,0,0,1,.84.63,2.73,2.73,0,0,1,.56.94,4,4,0,0,1,.21,1.37,3,3,0,0,1-.91,2.4,3.56,3.56,0,0,1-2.36.76,7.29,7.29,0,0,1-1.71-.22,8.16,8.16,0,0,1-1.84-.67l-.09-2.45a4.2,4.2,0,0,0,.71.38,7.38,7.38,0,0,0,.94.33l1,.24A5,5,0,0,0,204.27,181.09Z" transform="translate(-50.58 -26.8)"/></g></g></g></svg>